HIERARCHY
ROOT root
{
	OFFSET	0	13.1	24.9
	CHANNELS 6  Xposition Yposition Zposition Xrotation Yrotation Zrotation
	JOINT spine_1
	{
		OFFSET	0	9.99999	0
		CHANNELS 3  Xrotation Yrotation Zrotation
		JOINT spine_2
		{
			OFFSET	0	112	-10
			CHANNELS 3  Xrotation Yrotation Zrotation
			JOINT spine_3
			{
				OFFSET	0	206.5	19.3
				CHANNELS 3  Xrotation Yrotation Zrotation
				JOINT spine_4
				{
					OFFSET	0	110.4	14.6
					CHANNELS 3  Xrotation Yrotation Zrotation
					JOINT neck_1
					{
						OFFSET	0	71.8	-50.3
						CHANNELS 3  Xrotation Yrotation Zrotation
						JOINT neck_2
						{
							OFFSET	0	86.2	-25.8
							CHANNELS 3  Xrotation Yrotation Zrotation
							JOINT head_ee
							{
								OFFSET	0	179.8	-8.7
								CHANNELS 3  Xrotation Yrotation Zrotation
								End Site
								{
									OFFSET	1	0	0
								}
							}
						}
					}
					JOINT left_clavicle
					{
						OFFSET	-43.2	22.4	-70.8
						CHANNELS 3  Xrotation Yrotation Zrotation
						JOINT left_shoulder
						{
							OFFSET	-93.9	-5.79999	48.7
							CHANNELS 3  Xrotation Yrotation Zrotation
							JOINT left_elbow
							{
								OFFSET	-291.4	-30.8	15.2
								CHANNELS 3  Xrotation Yrotation Zrotation
								JOINT left_lowarm_twist
								{
									OFFSET	-110.7	-3.89999	13.6
									CHANNELS 3  Xrotation Yrotation Zrotation
									JOINT left_hand
									{
										OFFSET	-110.7	-3.89999	13.6
										CHANNELS 3  Xrotation Yrotation Zrotation
										JOINT left_ee
										{
											OFFSET	-80.8	-5.10001	12.1
											CHANNELS 3  Xrotation Yrotation Zrotation
											End Site
											{
												OFFSET	1	0	0
											}
										}
									}
								}
							}
						}
					}
					JOINT right_clavicle
					{
						OFFSET	43.2	22.4	-70.8
						CHANNELS 3  Xrotation Yrotation Zrotation
						JOINT right_shoulder
						{
							OFFSET	93.9	-5.79999	48.7
							CHANNELS 3  Xrotation Yrotation Zrotation
							JOINT right_elbow
							{
								OFFSET	291.4	-30.8	15.2
								CHANNELS 3  Xrotation Yrotation Zrotation
								JOINT right_lowarm_twist
								{
									OFFSET	110.7	-3.89999	13.6
									CHANNELS 3  Xrotation Yrotation Zrotation
									JOINT right_hand
									{
										OFFSET	110.7	-3.89999	13.6
										CHANNELS 3  Xrotation Yrotation Zrotation
										JOINT right_ee
										{
											OFFSET	80.8	-5.10001	12.1
											CHANNELS 3  Xrotation Yrotation Zrotation
											End Site
											{
												OFFSET	1	0	0
											}
										}
									}
								}
							}
						}
					}
				}
			}
		}
	}
	JOINT left_hip
	{
		OFFSET	-82.8	-127.5	0.300001
		CHANNELS 3  Xrotation Yrotation Zrotation
		JOINT left_knee
		{
			OFFSET	-28.2	-396.7	2.2
			CHANNELS 3  Xrotation Yrotation Zrotation
			JOINT left_ankle
			{
				OFFSET	-11.7	-411.3	35.4
				CHANNELS 3  Xrotation Yrotation Zrotation
				JOINT left_toes
				{
					OFFSET	0	-60	-88.6
					CHANNELS 3  Xrotation Yrotation Zrotation
					JOINT left_foot_ee
					{
						OFFSET	-22.5	-16.5	-42.2
						CHANNELS 3  Xrotation Yrotation Zrotation
						End Site
						{
							OFFSET	1	0	0
						}
					}
				}
			}
		}
	}
	JOINT right_hip
	{
		OFFSET	82.8	-127.5	0.300001
		CHANNELS 3  Xrotation Yrotation Zrotation
		JOINT right_knee
		{
			OFFSET	28.2	-396.7	2.2
			CHANNELS 3  Xrotation Yrotation Zrotation
			JOINT right_ankle
			{
				OFFSET	11.7	-411.3	35.4
				CHANNELS 3  Xrotation Yrotation Zrotation
				JOINT right_toes
				{
					OFFSET	0	-60	-88.6
					CHANNELS 3  Xrotation Yrotation Zrotation
					JOINT right_foot_ee
					{
						OFFSET	22.5	-16.5	-42.2
						CHANNELS 3  Xrotation Yrotation Zrotation
						End Site
						{
							OFFSET	1	0	0
						}
					}
				}
			}
		}
	}
}
MOTION
Frames: 5
Frame Time: 0.02
2901.283877 706.354 -1598.50134128 29.106877979 77.589015812 -24.3429262678 -2.02848 -0.439315 -1.90583 -2.02652 -0.317175 -1.92991 -2.01347 0.164105 -1.94889 -2.01874 -0.145685 -1.95036 -6.15848 5.12699 7.6472 -6.00174 3.85189 8.66806 -0.0 0.0 -0.0 7.34312 6.03573 14.1584 5.97721 -33.157 62.5856 0.901083 -24.0543 0.191981 8.97325 0.228672 -1.12227 -1.09597 17.9392 0.637267 -0.0 0.0 -0.0 6.09958 26.2077 -10.237 -18.603 14.49 -60.9913 1.31117 33.0027 -0.388435 -14.8357 0.752113 -1.73618 -1.9865 -13.8181 6.76029 0.0 0.0 0.0 3.42589 15.8224 -0.249605 -8.02646 0.246314 1.20619 24.1987 11.3024 -3.24758 -10.2668 0.0 0.0 -0.0 0.0 -0.0 11.2249 17.8132 -7.19673 -50.3598 1.25365 -7.3821 41.3964 -13.7417 5.03736 -31.8447 0.0 0.0 0.0 0.0 0.0 
2902.45767904 706.354 -1594.07713116 31.2845624969 78.3854176501 -26.5693013033 -2.02848 -0.439315 -1.90583 -2.02652 -0.317175 -1.92991 -2.01347 0.164105 -1.94889 -2.01874 -0.145685 -1.95036 -6.15848 5.12699 7.6472 -6.00174 3.85189 8.66806 -0.0 0.0 -0.0 7.34312 6.03573 14.1584 5.97721 -33.157 62.5856 0.901083 -24.0543 0.191981 8.97325 0.228672 -1.12227 -1.09597 17.9392 0.637267 -0.0 0.0 -0.0 6.09958 26.2077 -10.237 -18.603 14.49 -60.9913 1.31117 33.0027 -0.388435 -14.8357 0.752113 -1.73618 -1.9865 -13.8181 6.76029 0.0 0.0 0.0 3.42589 15.8224 -0.249605 -8.02646 0.246314 1.20619 24.1987 11.3024 -3.24758 -10.2668 0.0 0.0 -0.0 0.0 -0.0 11.2249 17.8132 -7.19673 -50.3598 1.25365 -7.3821 41.3964 -13.7417 5.03736 -31.8447 0.0 0.0 0.0 0.0 0.0 
2894.66388891 708.105 -1587.84640625 29.5177655867 78.9710210971 -24.5804292405 -1.83061 -0.539365 -2.1078 -1.82823 -0.404178 -2.13783 -1.81032 0.122814 -2.17222 -1.81684 -0.221706 -2.16436 -6.59611 5.49547 8.29602 -6.41145 4.13035 9.39021 -0.0 0.0 -0.0 7.17143 5.05683 13.8621 7.32717 -34.2293 61.7524 0.983761 -25.9807 0.22695 9.69422 0.239367 -1.21374 -0.917534 16.2441 0.985175 -0.0 0.0 -0.0 5.62821 25.5389 -9.27741 -21.3181 14.1353 -61.7488 1.15866 29.8533 -0.308881 -14.4893 0.729504 -1.69805 -1.96053 -14.2473 6.38839 0.0 0.0 0.0 2.99872 15.9028 -0.0818518 -7.07003 0.225871 1.06084 24.2507 11.9734 -3.25698 -10.6206 0.0 0.0 -0.0 0.0 -0.0 14.3752 16.652 -8.48058 -50.9894 1.30943 -7.46142 41.0158 -13.3715 4.99948 -32.4693 0.0 0.0 0.0 0.0 0.0 
2864.08689462 705.461 -1589.25776713 27.8566287632 77.3298834741 -21.8303583491 -1.79147 -0.359397 -2.42685 -1.78822 -0.204289 -2.44479 -1.77621 0.389545 -2.4222 -1.7844 0.00223519 -2.4533 -7.53519 5.06015 8.73372 -7.32781 3.16816 9.74238 -0.0 0.0 -0.0 6.86098 4.05863 13.2911 9.52241 -35.3982 60.4749 1.31085 -32.9963 0.38826 9.92401 0.242535 -1.24292 -0.633254 11.1679 0.582826 -0.0 0.0 -0.0 4.86619 23.5597 -7.81596 -24.7685 11.7507 -64.0508 0.943127 25.0415 -0.209449 -13.258 0.651011 -1.5614 -2.00593 -16.4226 5.61047 0.0 0.0 0.0 -0.0452769 15.8549 -0.76769 -6.04843 0.201358 0.905988 25.8344 12.1143 -3.44282 -10.8295 0.0 0.0 -0.0 0.0 -0.0 20.4301 10.7854 -6.87363 -50.9518 1.30607 -7.4567 38.0909 -10.8359 4.71125 -33.3183 0.0 0.0 0.0 0.0 0.0 
2837.99085095 701.072 -1586.45331042 24.6269840106 76.5581887527 -17.9611624627 -1.71538 -0.369254 -2.88663 -1.71076 -0.184901 -2.90426 -1.69696 0.515032 -2.86424 -1.7084 0.0564149 -2.90959 -7.59232 5.30984 8.82617 -7.3813 3.5774 9.88526 -0.0 0.0 -0.0 6.62444 3.03454 12.8484 11.8974 -36.1934 58.8646 1.63153 -38.9426 0.576871 10.2323 0.2466 -1.28209 -0.473396 9.45922 0.879151 -0.0 0.0 -0.0 4.63687 21.682 -7.49769 -27.9887 11.9059 -64.5211 0.733308 19.964 -0.129066 -12.8438 0.625271 -1.51507 -1.98408 -17.2102 5.09192 0.0 0.0 0.0 -1.88347 16.4214 -1.29335 -4.64454 0.163172 0.693926 27.0706 13.0094 -3.59035 -10.4555 0.0 0.0 -0.0 0.0 -0.0 23.9792 6.63104 -7.50318 -50.3751 1.255 -7.38403 36.7816 -9.1428 4.57805 -33.7168 0.0 0.0 0.0 0.0 0.0 
